<svg width="91" height="130" viewBox="0 0 91 130" fill="none" xmlns="http://www.w3.org/2000/svg">
<path d="M22.3837 18.5048V51.976H0.626526H0.376526V52.226V116.759C0.376526 123.654 5.97959 129.25 12.8803 129.25H77.8633C84.765 129.25 90.367 123.653 90.367 116.759L90.368 52.226L90.3681 51.976H90.118H68.3617L68.3637 18.504V18.4936C68.3637 18.1668 68.3637 17.8362 68.3338 17.559V17.5439H68.334L68.3336 17.5339C68.1398 12.7138 66.6129 8.64135 63.2959 6.02327C58.6537 2.35224 51.4593 0.679885 44.5669 0.75225C37.6806 0.824551 31.0101 2.63997 27.4343 6.03813C24.5339 8.78471 22.7614 12.3592 22.4592 16.8381C22.4385 16.9861 22.4309 17.1504 22.4241 17.2963C22.421 17.3631 22.4181 17.4261 22.4142 17.4819L22.4136 17.4906V17.4994V17.5468C22.3836 17.8785 22.3837 18.181 22.3837 18.4999V18.5048ZM61.4154 7.99101L61.4156 7.99438L61.4985 8.06503C61.8856 8.39478 62.2314 8.75394 62.5658 9.14564L62.5673 9.14736C64.2873 11.1255 65.2922 13.6892 65.5406 16.8386L65.5414 16.8484L65.5429 16.858C65.5846 17.1214 65.5986 17.3875 65.6141 17.6824V17.7347V17.7495L65.6159 17.7642C65.6438 17.9986 65.6441 18.2496 65.6441 18.503V51.9742H62.4442L62.4432 18.503C62.4432 15.9457 61.6914 12.9971 60.3918 10.2946C60.0473 9.54727 59.6434 8.79947 59.194 8.09663L59.1862 8.08366C59.1034 7.9459 59.0116 7.7935 58.9044 7.65405C58.3987 6.88613 57.8556 6.17743 57.2906 5.53745C58.7431 6.11339 60.1724 6.90923 61.4154 7.99101ZM59.7233 18.5024V18.537L59.7238 18.5386V51.9752L31.0238 51.9762V18.5024C31.0238 15.8986 31.9453 12.7813 33.5447 10.0727C34.2214 10.0005 35.788 9.94437 37.8324 9.90611C39.9999 9.86554 42.6862 9.84524 45.3731 9.84524C48.0599 9.84524 50.7462 9.86554 52.9138 9.90611C54.9582 9.94437 56.5248 10.0005 57.2015 10.0727C58.8018 12.7816 59.7233 15.8986 59.7233 18.5024ZM35.6097 7.1677C36.0895 6.58995 36.6608 6.08744 37.2989 5.65322L37.3142 5.65575L37.4021 5.58222C37.4951 5.50449 37.5569 5.45596 37.6212 5.42834L37.6384 5.42095L37.6543 5.41108C38.4897 4.89293 39.4461 4.48656 40.4508 4.18104C43.3189 3.33819 46.6614 3.35145 49.552 4.09497L49.5542 4.09553C51.1433 4.48856 52.5771 5.09776 53.7149 5.88923C53.833 5.9774 53.9434 6.06085 54.0399 6.14292L54.0458 6.14791L54.0519 6.15252C54.4668 6.46357 54.8284 6.80407 55.1362 7.16764C53.4875 7.10458 49.4228 7.07354 45.3735 7.07354C41.3229 7.07354 37.2571 7.1046 35.6097 7.1677ZM25.1327 17.6988L25.1337 17.6874V17.6759V17.6662C25.2659 14.1797 26.2877 11.3274 28.1654 9.16173L28.1667 9.16026C28.5008 8.7689 28.8478 8.40815 29.2377 8.06094C30.4989 6.9436 31.9583 6.12597 33.4424 5.53771C32.8776 6.17754 32.3346 6.88661 31.8291 7.65437C31.7181 7.79856 31.6241 7.95522 31.5382 8.09892C31.1041 8.80175 30.7007 9.54838 30.3425 10.2932L30.342 10.2942C29.0568 12.9965 28.3048 15.9454 28.3048 18.5033V51.9745H25.1049L25.1038 18.504C25.1038 18.2528 25.1039 18.0123 25.1327 17.6988ZM87.6497 54.6954V116.761C87.6497 122.152 83.263 126.535 77.8653 126.535H12.8823C7.48484 126.535 3.09797 122.152 3.09797 116.761V54.6954H87.6497Z" fill="#4CC3DD" stroke="#4CC3DD" stroke-width="0.5"/>
</svg>
