<svg width="111" height="85" viewBox="0 0 111 85" fill="none" xmlns="http://www.w3.org/2000/svg">
<path d="M109.7 62.75L109.748 62.7032L109.893 63.0328C110.224 63.7891 110.078 64.4217 109.904 64.8119L109.903 64.8132C109.6 65.4801 109.02 65.9226 108.169 66.3124C107.338 66.6929 106.204 67.0418 104.732 67.495L104.646 67.5215C104.549 67.5519 104.45 67.5828 104.349 67.6142C102.956 68.0481 101.255 68.578 99.3285 69.2725M109.7 62.75L99.2437 69.0374M109.7 62.75C109.627 62.6547 109.541 62.5554 109.444 62.4535C109.239 62.2364 108.97 61.9883 108.649 61.7148C108.006 61.1675 107.139 60.5069 106.116 59.7719C104.07 58.3014 101.385 56.5227 98.5836 54.7395C93.0746 51.2326 87.0974 47.6958 84.6273 46.4417C84.4342 45.0156 83.8221 42.6441 82.9404 39.81C82.0288 36.88 80.8239 33.4394 79.4803 30.0056C78.1367 26.5721 76.6531 23.1421 75.1837 20.2342C73.7178 17.3332 72.2549 14.9291 70.9484 13.5665L70.9484 13.5664C68.1597 10.6601 62.0564 6.89993 55.0491 4.20792C48.0415 1.51582 40.0718 -0.130756 33.5491 1.24752C30.0892 1.97618 24.6908 3.82064 19.3827 6.97999C14.075 10.1391 8.83846 14.6244 5.73123 20.6439L5.7312 20.644C2.20523 27.4787 0.504244 33.8245 0.663834 40.6785C0.823314 47.5278 2.84044 54.8651 6.71894 63.6842L6.7196 63.6857C6.9039 64.0975 7.27475 64.4158 7.73799 64.504C7.99899 64.5614 10.6363 65.0662 16.2305 65.0662C19.4492 65.0662 23.6486 64.8902 28.9316 64.3765C30.3259 65.6563 34.5273 69.4549 39.3901 73.2769C41.8713 75.2272 44.5274 77.1857 47.0726 78.8195C49.6145 80.4512 52.0592 81.7679 54.1153 82.424M109.7 62.75L54.1153 82.424M99.3285 69.2725L99.2437 69.0374M99.3285 69.2725C99.3285 69.2725 99.3285 69.2725 99.3285 69.2725L99.2437 69.0374M99.3285 69.2725C96.446 70.3128 94.6623 71.7115 92.3651 73.5142L92.3424 73.532C89.7115 75.5965 86.4376 78.1655 80.4237 80.8141M99.2437 69.0374C96.3208 70.0922 94.5094 71.5136 92.2145 73.3146L92.2108 73.3175L92.1876 73.3357C89.5625 75.3956 86.3079 77.9494 80.3228 80.5854M80.4237 80.8141L80.3228 80.5854M80.4237 80.8141C74.6144 83.3771 69.6311 84.25 65.1437 84.25C60.6573 84.25 56.9719 83.3417 54.1153 82.424M80.4237 80.8141C80.4237 80.8141 80.4236 80.8142 80.4236 80.8142L80.3228 80.5854M80.3228 80.5854L54.1153 82.424M54.1153 82.424L54.1913 82.1858L54.1148 82.4238C54.115 82.4239 54.1151 82.4239 54.1153 82.424ZM68.907 15.5716L68.9068 15.5713C66.8542 13.4287 62.846 10.8153 58.0106 8.57693C53.6725 6.5688 48.6913 4.87302 43.8984 4.09166C53.5133 8.90452 60.128 17.2901 62.6057 20.4371M68.907 15.5716L62.4093 20.5918M68.907 15.5716C70.1441 16.8593 71.5898 19.3153 73.0639 22.3457C74.5339 25.3676 76.0196 28.9333 77.3418 32.4177C78.664 35.9018 79.8213 39.3007 80.6351 41.9874C81.0421 43.3311 81.3624 44.4941 81.5744 45.3994C81.6805 45.8522 81.7588 46.2378 81.8074 46.5477C81.855 46.8508 81.8715 47.0662 81.8636 47.1978M68.907 15.5716L81.8636 47.1978M62.6057 20.4371L62.4093 20.5918M62.6057 20.4371C62.6057 20.4371 62.6057 20.4371 62.6057 20.4371L62.4093 20.5918M62.6057 20.4371C63.542 21.6257 64.6212 23.5854 65.7575 25.985C66.8962 28.3895 68.0999 31.2526 69.2828 34.2595C71.6053 40.1631 73.8516 46.6313 75.3734 51.2944M62.4093 20.5918C66.0487 25.212 72.0749 41.9903 75.1426 51.393C75.2203 51.36 75.2973 51.3271 75.3734 51.2944M75.3734 51.2944C77.7691 50.264 79.3778 49.3529 80.3998 48.6322C80.9287 48.2592 81.2958 47.9405 81.5326 47.6864C81.6511 47.5594 81.7338 47.4519 81.7877 47.365C81.8428 47.2763 81.86 47.2217 81.8636 47.1978M75.3734 51.2944C75.3995 51.3745 75.4255 51.454 75.4512 51.5331C80.3633 49.4231 82.0298 47.7933 82.1111 47.233L81.8636 47.1978M31.8734 22.3303C32.0019 29.6402 34.7069 51.5895 35.8409 60.67C38.9075 60.2605 42.2552 59.7385 45.907 59.0922C59.6019 56.6609 68.3664 54.0806 73.8207 51.9247C72.1295 46.7354 69.8375 40.2175 67.5533 34.4551C66.3947 31.5324 65.2392 28.8065 64.1658 26.5481C63.0901 24.2846 62.1048 22.5074 61.2887 21.4699C58.4585 17.8769 50.215 7.42811 38.4045 3.62664C37.0008 3.62884 35.6538 3.74972 34.3727 3.99879C33.7499 5.53341 33.1035 8.35716 32.6227 11.657C32.1298 15.0394 31.8146 18.8967 31.8734 22.3303ZM31.8734 22.3303L31.6235 22.3346L31.8734 22.3303ZM16.2305 64.8162C19.4628 64.8162 23.6903 64.6382 29.0185 64.1168L6.94779 63.5835C7.10174 63.9276 7.40965 64.1883 7.78826 64.2591C8.00167 64.3067 10.6181 64.8162 16.2305 64.8162ZM9.00926 61.8131C4.94661 52.4166 3.34536 45.2105 3.45645 38.9914C3.56793 32.7502 5.40433 27.4801 8.2473 21.9634C10.9951 16.6422 15.6544 12.632 20.392 9.75112C24.8968 7.0118 29.4557 5.30363 32.4664 4.46415C31.0359 8.85332 30.1212 17.0211 30.2127 22.3628L30.2127 22.3628C30.3305 29.1442 32.4861 47.2535 34.1858 60.9001C19.1712 62.7956 11.2879 62.1061 9.00926 61.8131ZM96.4277 56.7316C100.96 59.6393 105.166 62.4962 106.759 63.8002C106.053 64.0868 104.921 64.4376 103.79 64.7782L103.197 64.9569L103.224 64.9704C101.853 65.3913 100.216 65.9111 98.3542 66.5847L98.354 66.5848C95.0713 67.7757 93.0139 69.3831 90.6696 71.2144L90.6129 71.2587L90.6128 71.2589L90.5858 71.28C87.946 73.3451 84.9585 75.6822 79.2755 78.1866L79.2754 78.1867C68.3606 83.0034 60.1746 81.3544 54.9547 79.6832L54.9545 79.6831C51.7327 78.6545 47.2263 75.6662 42.9288 72.398C38.8895 69.3261 35.0639 66.0299 32.7156 63.9452C36.7301 63.473 41.2658 62.8042 46.3851 61.8967L46.3852 61.8967C56.5343 60.093 65.1527 57.974 71.6186 55.7692C74.8513 54.667 77.5514 53.5415 79.6378 52.4205C81.6109 51.3605 83.0582 50.2925 83.8802 49.2339C86.6249 50.6157 91.6875 53.6905 96.4277 56.7316Z" fill="#4CC3DD" stroke="#4CC3DD" stroke-width="0.5"/>
</svg>
