<svg width="135" height="149" viewBox="0 0 135 149" fill="none" xmlns="http://www.w3.org/2000/svg">
<path d="M134.314 137.74C132.95 134.663 132.298 130.634 132.18 129.848C132.757 100.521 114.155 39.6252 113.369 37.0844C113.266 36.717 110.835 28.6405 101.466 24.0266C102.089 22.7052 102.622 21.3185 102.978 19.8466C104.905 11.9718 100.192 5.20022 94.722 3.4276C89.7715 1.83911 82.1968 0 67.5673 0H67.5528H67.5384C52.8935 0 45.3342 1.83926 40.3678 3.4276C34.8983 5.18287 30.2 11.9718 32.1119 19.8466C32.4676 21.301 32.9866 22.6726 33.5946 23.9765C24.1671 28.5739 21.7073 36.7007 21.6183 37.0342C20.846 39.6257 2.22867 100.519 2.82105 129.848C2.70215 130.634 2.05075 134.664 0.686981 137.741C0.345768 138.527 0.583587 139.48 1.25048 139.915L13.079 147.94C13.3158 148.09 13.5825 148.174 13.8493 148.174C13.9972 148.174 14.1305 148.158 14.2794 148.108C14.6796 147.974 15.0053 147.656 15.1831 147.221C15.1976 147.171 17.0215 142.891 19.7035 139.447C20.6971 138.829 23.9428 136.438 26.8925 130.87C28.004 133.026 29.6201 134.364 30.3758 134.883C30.9538 136.305 32.6288 140.752 33.4002 145.718C33.5191 146.52 34.1415 147.106 34.8529 147.106H34.9418C35.0752 147.089 49.1864 146.169 67.5518 146.119C85.8877 146.169 100 147.088 100.133 147.106C100.829 147.139 101.555 146.57 101.674 145.734C102.444 140.786 104.135 136.337 104.699 134.899C105.44 134.381 107.026 133.076 108.137 130.97C111.087 136.488 114.304 138.845 115.282 139.464C117.965 142.908 119.788 147.188 119.802 147.239C119.98 147.656 120.306 147.991 120.706 148.125C120.839 148.175 120.987 148.191 121.136 148.191C121.403 148.191 121.67 148.107 121.906 147.957L133.735 139.932C134.417 139.462 134.654 138.509 134.314 137.74L134.314 137.74ZM41.1823 6.65516C45.9549 5.11683 53.262 3.34519 67.5365 3.34519H67.551H67.5655C81.8402 3.34519 89.147 5.11796 93.9197 6.65635C98.0256 7.97777 101.583 13.0768 100.131 18.962C99.0636 23.2587 92.6005 34.5286 75.6137 39.8784C75.7026 39.7618 75.7615 39.6778 75.777 39.6615C76.3105 38.9757 76.2516 37.9225 75.6436 37.3044C75.3469 37.0035 74.9768 36.8694 74.6056 36.8869C80.2676 32.6731 91.0733 23.6611 96.7806 17.3746C96.9584 17.2079 98.5145 15.7523 98.4256 13.73C98.3956 12.8774 98.0554 11.6563 96.6761 10.603C95.9948 10.0852 95.0756 10.3021 94.6154 11.0707C94.1564 11.8393 94.3487 12.8761 95.0301 13.3952C95.3857 13.6622 95.4602 13.8465 95.4602 13.8803C95.4747 14.0646 95.1934 14.516 94.8078 14.8834C91.28 18.7624 85.9581 23.5443 81.141 27.5903C83.7796 20.8025 83.794 14.214 83.794 13.8467C83.794 12.9277 83.1126 12.2419 82.2968 12.1917C81.4821 12.1917 80.8141 12.944 80.8297 13.8805C80.8297 13.9971 80.8152 25.3674 74.7375 32.7407C74.723 32.757 74.723 32.7908 74.7075 32.8072C72.4401 34.5624 70.7351 35.7836 70.1128 36.1007C69.0457 36.636 68.2744 37.3545 67.6964 38.0566C65.4579 36.7025 62.9238 34.9798 60.2552 32.9901C60.2107 32.9061 60.1807 32.8058 60.1073 32.723C54.0454 25.3659 54.2521 14.0134 54.2521 13.8966C54.2821 12.9776 53.6296 12.2078 52.8139 12.174C52.0281 12.1402 51.3167 12.8761 51.2867 13.7963C51.2723 14.1812 51.1534 21.0692 53.8954 28.0089C48.6336 23.6784 43.4753 18.8965 39.7095 14.7667C39.5017 14.5661 39.1616 14.0809 39.176 13.864C39.176 13.8302 39.265 13.647 39.6062 13.3788C40.2875 12.861 40.4654 11.8241 40.0208 11.0544C39.5617 10.2858 38.6425 10.0677 37.9601 10.5867C36.5663 11.6235 36.2406 12.861 36.2106 13.7136C36.1362 15.7371 37.6778 17.2078 37.7523 17.258C43.4741 23.5617 52.5604 31.4365 60.3119 37.0046C60.1247 37.1026 59.9324 37.2203 59.7835 37.4034C59.22 38.0717 59.25 39.126 59.8425 39.7605C59.8569 39.7768 59.9614 39.8946 60.1537 40.1116C51.3342 36.9345 37.7563 30.2972 34.9842 18.9608C33.5325 13.0592 37.0759 7.97663 41.1817 6.65515L41.1823 6.65516ZM66.2027 42.0359C65.8615 41.9519 65.4914 41.8353 65.0757 41.7186C64.4833 40.6993 63.8598 39.7954 63.3263 39.0933C64.3044 39.7453 65.2535 40.3646 66.1572 40.8987C66.1272 40.9827 66.1127 41.0492 66.1127 41.0655C66.0538 41.4177 66.0982 41.735 66.2026 42.0359L66.2027 42.0359ZM68.9304 42.0359C68.9448 41.9694 68.9893 41.9193 69.0048 41.8353C69.0048 41.819 69.4194 40.0963 71.3167 39.1271C71.7024 38.9265 72.3838 38.4915 73.2285 37.8897C72.8139 38.5078 72.0571 39.7126 71.4501 41.3012C70.4565 41.6021 69.6118 41.8529 68.9304 42.0359L68.9304 42.0359ZM13.242 144.162L3.88892 137.826C4.73365 135.535 5.25268 133.128 5.51946 131.656C5.66732 131.806 5.84517 131.941 6.05298 132.007C6.11191 132.023 11.9527 134.181 16.4585 138.043C16.5474 138.109 16.6363 138.159 16.7397 138.209C15.1837 140.4 13.9687 142.674 13.2419 144.162L13.242 144.162ZM99.0204 143.677C95.1223 143.443 82.775 142.808 67.5222 142.774C52.2993 142.808 39.9652 143.46 36.069 143.677C35.4166 140.233 34.4384 137.173 33.7271 135.217C44.0294 134.615 55.3976 134.314 67.5519 134.364C79.6915 134.314 91.0607 134.631 101.377 135.217C100.65 137.173 99.6708 140.233 99.0194 143.677H99.0204ZM109.307 126.321C109.337 123.212 108.551 113.748 107.291 99.0675C106.224 86.6616 105.127 73.837 105.097 69.523C105.022 60.9286 107.943 43.841 109.558 37.3877C109.781 36.5013 109.321 35.5823 108.536 35.3315C107.75 35.0808 106.935 35.5986 106.713 36.485C105.112 42.8553 102.058 60.2937 102.132 69.5727C102.177 74.0372 103.274 86.9284 104.341 99.4006C105.319 110.787 106.313 122.525 106.342 125.969C106.267 126.236 106.267 126.52 106.312 126.805C106.045 129.631 104.029 131.402 103.243 131.972C92.437 131.303 80.4306 130.969 67.5359 131.019C54.6404 131.003 42.6343 131.32 31.8291 131.972C31.0289 131.37 28.9538 129.564 28.746 126.654C28.5981 124.464 29.6796 111.723 30.7322 99.4005C31.7992 86.9271 32.8963 74.0196 32.9407 69.555C33.0152 60.2924 29.9609 42.8365 28.3603 36.4673C28.138 35.5809 27.3222 35.0631 26.5374 35.3139C25.7516 35.5646 25.2925 36.4848 25.5148 37.37C27.1309 43.8243 30.0508 60.9279 29.9762 69.5053C29.9317 73.8194 28.8347 86.6427 27.7822 99.0663C26.5518 113.462 25.7659 122.809 25.7659 126.102C23.2462 132.288 20.0595 135.181 18.7548 136.167C18.6659 135.866 18.518 135.582 18.2802 135.381C13.3742 131.185 7.25214 128.911 6.99989 128.827C6.58528 128.676 6.15515 128.76 5.79946 128.993C5.54925 99.9538 24.241 38.7592 24.4477 38.1233C24.5367 37.8224 26.7307 30.8002 35.2236 26.8546C41.9536 37.1377 56.1527 42.5215 63.1802 44.6453C64.3362 46.9697 64.9886 49.6941 63.417 51.7841C63.1358 52.1515 62.839 52.5364 62.5133 52.9551C60.097 55.9978 56.4657 60.5967 57.5628 66.9832C58.3331 71.4802 56.9704 72.284 56.9993 72.284C56.3469 72.4846 55.9023 73.1366 55.9023 73.8888V76.5643C55.9023 77.4833 56.5692 78.2368 57.385 78.2368C58.1997 78.2368 58.8677 77.4845 58.8677 76.5643V74.8254C59.9647 73.8387 61.3574 71.5318 60.4682 66.3486C59.6535 61.5831 62.4545 58.0388 64.7218 55.1802C65.063 54.7452 65.4032 54.3277 65.6855 53.9428C67.6572 51.3175 67.6127 48.341 66.8125 45.6494C67.0492 45.6996 67.2126 45.7497 67.2871 45.766C67.3605 45.7637 67.4349 45.7637 67.5083 45.7637H67.5383H67.5528H67.5673H67.5972C67.6717 45.7637 67.7451 45.7637 67.8195 45.7474C68.0274 45.6972 69.0499 45.4628 70.5916 45.0289C70.4583 46.8017 70.7105 48.7414 71.7331 50.6633C74.2973 55.5115 75.6167 63.237 73.3637 67.8007C73.2892 67.9675 73.2303 68.1354 73.2003 68.3185L72.7557 71.1771C72.6223 72.0798 73.1558 72.9499 73.9561 73.1167C74.0451 73.133 74.134 73.1505 74.2084 73.1505C74.9198 73.1505 75.5422 72.5825 75.6611 71.7626L76.0613 69.1548C78.7587 63.3198 77.1727 54.4409 74.2529 48.9406C73.3782 47.2856 73.3782 45.5631 73.7049 44.0583C81.1308 41.6173 93.6271 36.334 99.837 26.8869C108.257 30.8325 110.435 37.8045 110.54 38.1395C110.732 38.7576 129.393 99.8542 129.187 128.911C128.861 128.727 128.461 128.677 128.075 128.811C127.823 128.911 121.702 131.168 116.795 135.365C116.543 135.582 116.395 135.883 116.306 136.202C115.06 135.298 111.873 132.455 109.309 126.32L109.307 126.321ZM121.743 144.162C121.018 142.69 119.816 140.417 118.275 138.259C118.394 138.209 118.511 138.143 118.616 138.059C123.122 134.214 128.963 132.04 129.021 132.023C129.199 131.957 129.347 131.856 129.48 131.722C129.762 133.211 130.266 135.568 131.096 137.825L121.743 144.162Z" fill="#4CC3DD"/>
<path d="M83.8135 91.4912C83.6056 91.0061 83.191 90.655 82.702 90.5722C82.3463 90.5057 73.8679 89.0677 67.5537 89.0677C61.2395 89.0677 52.7609 90.5057 52.4054 90.5722C51.9309 90.6562 51.5162 90.9897 51.294 91.4912L41.9263 112.993C41.5706 113.829 41.8673 114.832 42.6076 115.234C42.8155 115.35 43.0378 115.4 43.2601 115.4C43.808 115.4 44.3271 115.049 44.5939 114.464L53.6211 93.7645C55.8596 93.4135 62.5296 92.4268 67.5547 92.4268C72.5799 92.4268 79.2641 93.4135 81.4883 93.7645L90.5156 114.464C90.7679 115.049 91.3014 115.4 91.8494 115.4C92.0717 115.4 92.294 115.35 92.5018 115.234C93.2432 114.832 93.5399 113.829 93.1832 112.993L83.8135 91.4912Z" fill="#4CC3DD"/>
</svg>
