<svg width="69" height="90" viewBox="0 0 69 90" fill="none" xmlns="http://www.w3.org/2000/svg">
<path d="M66.5647 0.000206577H7.30135C3.65221 0.000206577 0.682495 2.96622 0.682495 6.61237V83.3878C0.682495 87.0351 3.65152 90 7.30135 90H66.5647C67.3929 90 68.0622 89.3304 68.0622 88.504V1.49687C68.0622 0.669545 67.3937 0 66.5656 0L66.5647 0.000206577ZM65.0672 2.99307V87.008H13.9006V2.99307H65.0672ZM3.6769 83.3872V6.61168C3.6769 4.58147 5.26771 2.99238 7.29986 2.99238H10.9049V87.0074H7.29986C5.2676 87.0065 3.6769 85.4164 3.6769 83.3862V83.3872Z" fill="#4CC3DD"/>
<path d="M28.1554 30.3209H52.1401C52.9606 30.3209 53.6237 29.6507 53.6237 28.8235V18.3424C53.6237 17.5143 52.9597 16.845 52.1401 16.845H28.1554C27.3349 16.845 26.6718 17.5152 26.6718 18.3424V28.8235C26.6727 29.6507 27.3349 30.3209 28.1554 30.3209ZM29.6407 19.8389H50.6579V27.3261H29.6407V19.8389Z" fill="#4CC3DD"/>
</svg>
