<svg width="55" height="100" viewBox="0 0 55 100" fill="none" xmlns="http://www.w3.org/2000/svg">
<path d="M45.1725 0.5H45.1718L9.5728 0.499999L9.57207 0.500001C7.18717 0.503465 4.90101 1.45258 3.21561 3.14043L3.2156 3.14045C1.53038 4.82826 0.583862 7.11543 0.583862 9.50045V90.4995C0.583862 92.8846 1.53041 95.1716 3.21558 96.8595L3.56942 96.5063L3.2156 96.8596C4.90091 98.5475 7.18717 99.4967 9.5721 99.5H9.5728H45.1718H45.1725C47.5574 99.4965 49.8436 98.5474 51.529 96.8596L51.1752 96.5063L51.529 96.8596C53.2142 95.1717 54.1607 92.8846 54.1607 90.4995V9.50045C54.1607 7.11541 53.2142 4.8284 51.529 3.14047L51.1752 3.49373L51.529 3.14045C49.8437 1.45254 47.5574 0.503326 45.1725 0.5ZM5.16679 5.09151L5.1668 5.0915C6.3351 3.92091 7.91982 3.26212 9.5735 3.25899H45.1714C46.8251 3.26212 48.4099 3.92093 49.5781 5.09149C50.7458 6.26146 51.4023 7.84798 51.4023 9.50087V90.5C51.4023 92.1529 50.7458 93.7394 49.5781 94.9093C48.4097 96.08 46.8249 96.7388 45.171 96.7418H9.57389C7.92002 96.7388 6.33513 96.08 5.1668 94.9093L4.8129 95.2625L5.1668 94.9093C3.99912 93.7394 3.34258 92.1529 3.34258 90.5V9.50087C3.34258 7.84791 3.99911 6.26142 5.16679 5.09151Z" fill="#4CC3DD" stroke="#4CC3DD"/>
<path d="M23.4817 24.2535L23.4819 24.2534C24.5486 23.1858 25.1483 21.7384 25.1483 20.2293L25.1483 10.8488L25.1483 10.8472C25.1389 9.34412 24.5349 7.90599 23.469 6.84689L23.4689 6.84681C22.4022 5.78782 20.9608 5.19324 19.4577 5.19324H11.1447C9.6356 5.19324 8.18817 5.79294 7.1206 6.85965L7.12046 6.8598C6.05374 7.92736 5.45404 9.37471 5.45404 10.8839V20.2644C5.45404 21.7735 6.05374 23.2209 7.12046 24.2884L7.1206 24.2886C8.18817 25.3553 9.63551 25.955 11.1447 25.955L11.1457 25.955L19.4577 25.9199C19.4579 25.9199 19.4581 25.9199 19.4583 25.9199C20.9671 25.9198 22.4143 25.3201 23.4817 24.2535ZM11.1446 23.6607L11.1438 23.6607C10.2302 23.6638 9.35338 23.3038 8.70613 22.6603L8.70602 22.6602C8.05795 22.0167 7.69266 21.1422 7.68962 20.2285L7.6896 20.2232V10.8493C7.69276 9.93971 8.05492 9.06909 8.69764 8.42555C9.34129 7.78272 10.2127 7.4199 11.1213 7.41751H19.4346C20.3431 7.41988 21.2146 7.78278 21.8573 8.42555C22.5008 9.06904 22.863 9.93959 22.8662 10.8492C22.8662 10.8493 22.8662 10.8495 22.8662 10.8497V20.2285C22.8662 20.2287 22.8662 20.2289 22.8662 20.2291C22.863 21.1386 22.5008 22.0092 21.8573 22.6527C21.2145 23.2955 20.3429 23.6584 19.4342 23.6607L11.1446 23.6607Z" fill="#4CC3DD" stroke="#4CC3DD" stroke-width="0.5"/>
</svg>
