<svg width="132" height="123" viewBox="0 0 132 123" fill="none" xmlns="http://www.w3.org/2000/svg">
<path d="M50.0456 4.8939L50.076 5.20617C51.1614 16.3496 58.4347 23.0471 65.987 23.1418H66.0237C73.5711 23.0482 80.8413 16.352 81.9377 5.2155L81.9684 4.90363L82.2656 5.00286L93.3322 8.69726C99.524 10.7593 102.457 13.6076 106.999 18.0171C107.294 18.3036 107.595 18.5966 107.905 18.8965L50.0456 4.8939ZM50.0456 4.8939L49.748 4.99328L38.6797 8.68971L50.0456 4.8939ZM79.2887 0.543586L79.2535 0.553018C74.8428 1.73367 70.6919 2.13253 65.9446 2.12421M79.2887 0.543586L110.402 16.0384L131.149 36.0897C131.871 36.7877 131.953 37.9529 131.339 38.7531C131.339 38.7534 131.338 38.7537 131.338 38.7541L114.852 59.8728L114.852 59.8731C114.174 60.7438 112.954 60.8367 112.173 60.081L112.173 60.0808L104.362 52.5451L103.938 52.1365L103.938 52.725L103.937 120.808C103.937 121.89 103.099 122.75 102.094 122.75L29.9166 122.75L29.9148 122.75C28.9031 122.757 28.0588 121.891 28.0659 120.801V120.799V52.7301V52.1415L27.6423 52.5501L19.8392 60.0786L19.8389 60.0789C19.0577 60.8352 17.8308 60.7415 17.1628 59.8721L17.1616 59.8706L0.670776 38.7503L0.670009 38.7494C0.0422319 37.9535 0.129881 36.7789 0.854884 36.0795L0.855008 36.0794L21.614 16.0266L21.6142 16.0265C21.8176 15.8297 22.0189 15.6348 22.2183 15.4416C26.9543 10.854 30.6236 7.2997 37.5791 4.98496L37.5792 4.98493L50.8957 0.548712L50.9155 0.54211L50.934 0.53231C51.1759 0.4038 51.4525 0.334703 51.7282 0.327355L51.7304 0.327278C51.9549 0.319324 52.1838 0.364206 52.4095 0.456553L52.4236 0.462311L52.4383 0.466321C56.9741 1.70646 61.1995 2.1242 65.9446 2.12421M79.2887 0.543586L79.3198 0.524479M79.2887 0.543586L79.3198 0.524479M65.9446 2.12421C65.9447 2.12421 65.9447 2.12421 65.9448 2.12421V1.87421L65.9443 2.12421C65.9444 2.12421 65.9445 2.12421 65.9446 2.12421ZM79.3198 0.524479C79.6038 0.349851 79.9171 0.253673 80.233 0.250104L80.2853 0.251399C80.6522 0.260492 81.0078 0.382323 81.3137 0.609096L81.3457 0.632876M79.3198 0.524479L81.3457 0.632876M81.3457 0.632876L81.3836 0.645481M81.3457 0.632876L81.3836 0.645481M81.3836 0.645481L94.4349 4.98714C101.335 7.28348 104.994 10.8162 109.684 15.3453M81.3836 0.645481L109.684 15.3453M109.684 15.3453C109.92 15.5737 110.16 15.8046 110.402 16.0381L109.684 15.3453ZM127.212 37.5488L107.906 18.8966L38.6794 8.68978C32.5055 10.7452 29.5726 13.5892 25.0497 17.9749C24.7402 18.275 24.4232 18.5824 24.0973 18.8972L24.0972 18.8972L4.80026 37.5434L4.63848 37.6997L4.77693 37.877L18.6119 55.5961L18.7826 55.8147L18.9824 55.6223L27.9882 46.9464L28.0647 46.8726V46.7663L28.0648 35.373L28.0647 35.3679C28.0425 34.2776 28.8758 33.4027 29.8785 33.3955L29.8822 33.3954C30.9134 33.3728 31.7747 34.257 31.7533 35.3682L31.7533 35.3682V35.373V118.605V118.855L32.0032 118.855L100.003 118.874L100.253 118.874V118.624V35.3731H100.254L100.253 35.361C100.121 32.6372 104.071 32.6349 103.938 35.3609L103.938 35.3609V35.3731V46.7664V46.8727L104.014 46.9464L113.031 55.6391L113.231 55.8317L113.402 55.6129L127.236 37.8824L127.374 37.7051L127.212 37.5488ZM54.0413 4.71175L53.7369 4.64387V4.95575V4.95584V4.96815L53.7381 4.9804C54.6713 14.4323 60.47 19.1709 65.9996 19.2513L66.0069 19.2512C71.5363 19.1709 77.3332 14.4355 78.2654 4.99906L78.2993 4.65586L77.9626 4.73039C73.9998 5.60755 70.1361 6.01861 66.021 5.98544L66.0175 5.98546C61.8914 6.01031 58.0117 5.59714 54.0413 4.71175Z" fill="#4CC3DD" stroke="white" stroke-width="0.5"/>
</svg>
