<svg width="98" height="98" viewBox="0 0 98 98" fill="none" xmlns="http://www.w3.org/2000/svg">
<path d="M93.3126 39.0424C92.2094 39.034 91.2446 38.2974 90.9465 37.2345C90.0015 33.909 88.6593 30.7089 86.9494 27.7042C86.3932 26.7193 86.5682 25.483 87.3765 24.6914C88.2428 23.818 88.7294 22.6366 88.7294 21.4056C88.7294 20.1746 88.2428 18.9932 87.3765 18.119L79.885 10.6588C79.011 9.79147 77.8299 9.30548 76.5992 9.30548C75.3685 9.30548 74.1874 9.79147 73.3134 10.6588L73.127 10.8452H73.1277C72.35 11.6223 71.1507 11.7881 70.1918 11.2502C67.2222 9.58745 64.0633 8.28542 60.7843 7.37228C59.7033 7.08114 58.9501 6.10382 58.9439 4.98438V4.6665C58.9439 3.42862 58.4527 2.24183 57.578 1.36703C56.7025 0.492094 55.516 0 54.2785 0H43.6878C42.4525 0.00305652 41.2683 0.495929 40.3959 1.37085C39.5234 2.24578 39.0338 3.43089 39.0338 4.6666V5.32376C39.0284 6.42105 38.3019 7.38458 37.2484 7.69033C34.0879 8.62028 31.045 9.9102 28.1802 11.5354C27.2123 12.0856 25.9976 11.9297 25.2009 11.1518L24.6531 10.6039C23.7784 9.73968 22.598 9.25523 21.3681 9.25523C20.1381 9.25523 18.957 9.7397 18.0822 10.6039L10.6565 18.097C9.78942 18.9712 9.30354 20.1526 9.30354 21.3836C9.30354 22.6146 9.78942 23.7959 10.6565 24.6702L11.3464 25.3602C12.1363 26.1441 12.3028 27.3613 11.752 28.3288C10.2096 31.1492 8.98642 34.1324 8.10497 37.2241C7.81466 38.2931 6.84673 39.0366 5.73892 39.0428H4.66556C3.43024 39.0428 2.24534 39.5326 1.37054 40.4052C0.495799 41.2778 0.00305094 42.4623 0 43.6978V54.3024C0.00305583 55.538 0.495818 56.7224 1.37054 57.5951C2.24528 58.4677 3.43012 58.9575 4.66556 58.9575H5.68391C6.79318 58.9659 7.76266 59.7079 8.06051 60.7761C8.95434 63.8671 10.1927 66.8471 11.752 69.6607C12.302 70.6189 12.1401 71.8269 11.3578 72.607L10.6565 73.3085C9.78936 74.1819 9.30348 75.3633 9.30348 76.5943C9.30348 77.8253 9.78936 79.0066 10.6565 79.8809L18.1479 87.374C19.0226 88.2382 20.2038 88.7226 21.4337 88.7226C22.6637 88.7226 23.844 88.2382 24.7188 87.374L25.2665 86.8154C26.0603 86.0826 27.2315 85.9374 28.1802 86.4539C31.0312 88.077 34.0589 89.3669 37.2041 90.299C38.2584 90.6046 38.9849 91.5674 38.9895 92.6648V93.3334C38.9895 94.569 39.4799 95.7542 40.3524 96.6292C41.2248 97.5041 42.4091 97.9969 43.6443 98H54.235C55.4726 98 56.6591 97.5079 57.5337 96.633C58.4092 95.758 58.9004 94.5714 58.9004 93.3335V92.9606C58.9325 91.848 59.7034 90.8929 60.7844 90.6277C64.0481 89.7382 67.1947 88.4659 70.159 86.8376C71.1231 86.2966 72.3294 86.467 73.1055 87.2533L73.2919 87.4397C74.1651 88.307 75.3462 88.793 76.5769 88.793C77.8077 88.793 78.9887 88.307 79.8628 87.4397L87.3542 79.9466C88.2381 79.0686 88.7354 77.8735 88.7354 76.6272C88.7354 75.3809 88.2381 74.1865 87.3542 73.3085C86.5696 72.5146 86.413 71.2951 86.9707 70.3285C88.6774 67.327 90.0158 64.1314 90.9578 60.809C91.2627 59.7469 92.2291 59.0118 93.3337 59.0018C94.5697 59.0018 95.7547 58.5113 96.6295 57.6386C97.5042 56.766 97.997 55.5815 98 54.346V43.6978C97.9969 42.4584 97.5011 41.2709 96.6218 40.3975C95.7425 39.5241 94.5515 39.0366 93.3123 39.0427L93.3126 39.0424ZM95.7878 54.3021C95.7816 55.6646 94.6754 56.7665 93.3126 56.7665C92.298 56.7734 91.3125 57.1089 90.5051 57.7232C89.6969 58.3376 89.1101 59.1972 88.8328 60.1737C87.9344 63.3228 86.6623 66.3533 85.0436 69.2005C84.5355 70.0975 84.3362 71.1368 84.4767 72.1576C84.6173 73.1793 85.0894 74.1259 85.8213 74.8526C86.7831 75.8185 86.7831 77.3812 85.8213 78.3469L78.3299 85.84C77.3642 86.8021 75.8019 86.8021 74.8363 85.84L74.6499 85.6536C73.9387 84.9361 73.0112 84.4715 72.0105 84.3309C71.0097 84.1903 69.9898 84.3821 69.1082 84.8757C66.2923 86.4032 63.3075 87.5983 60.2149 88.4365C59.2255 88.7009 58.35 89.284 57.7244 90.0955C57.0988 90.9077 56.758 91.9026 56.7542 92.9274V93.3003C56.7542 94.6673 55.6465 95.776 54.279 95.776H43.6884C42.3262 95.7699 41.2245 94.6635 41.2245 93.3003V92.6317C41.2253 91.623 40.8975 90.6403 40.291 89.8342C39.6844 89.028 38.8318 88.4412 37.8623 88.1623C34.8722 87.2927 31.9912 86.083 29.2755 84.5586C28.565 84.1513 27.7613 83.9366 26.9431 83.9343C25.7108 83.9343 24.5297 84.4226 23.6573 85.2922L23.1095 85.84C22.1362 86.7845 20.5892 86.7845 19.616 85.84L12.1245 78.3469C11.1627 77.3811 11.1627 75.8184 12.1245 74.8526L12.8472 74.1955C13.5646 73.481 14.0283 72.5518 14.1689 71.5494C14.3095 70.5469 14.1185 69.5251 13.625 68.6411C12.1612 65.9713 11 63.1454 10.1643 60.2174C9.8885 59.2394 9.30332 58.3767 8.49504 57.7601C7.68754 57.1442 6.70126 56.8072 5.68445 56.7996H4.6661C3.30319 56.7996 2.19699 55.6977 2.19093 54.3352V43.6977C2.19704 42.3353 3.30325 41.2334 4.6661 41.2334H5.68445C6.70128 41.2265 7.68752 40.8887 8.49504 40.2728C9.3033 39.6562 9.8885 38.7935 10.1643 37.8155C10.9985 34.8844 12.1552 32.0556 13.6144 29.3803C14.1178 28.4962 14.3157 27.4707 14.1767 26.4621C14.0384 25.4542 13.5709 24.5197 12.8474 23.8044L12.1575 23.1144C11.1957 22.1486 11.1957 20.5859 12.1575 19.6201L19.649 12.127C20.6223 11.1825 22.1693 11.1825 23.1425 12.127L23.6788 12.6634H23.6796C24.4061 13.384 25.3488 13.8471 26.3634 13.9815C27.378 14.116 28.4085 13.9151 29.2978 13.4084C32.0061 11.8634 34.8838 10.6362 37.8733 9.74982C38.8405 9.47167 39.69 8.88559 40.2951 8.08174C40.8994 7.2771 41.2256 6.29749 41.2248 5.29106V4.63391C41.2248 3.27069 42.3264 2.16424 43.6887 2.15818H54.2793C55.6468 2.15818 56.7545 3.26693 56.7545 4.63391V4.98465C56.7431 6.02386 57.0761 7.03706 57.7026 7.8655C58.329 8.69458 59.2129 9.29214 60.2153 9.5634C63.3116 10.4047 66.2973 11.6113 69.1086 13.1571C69.9948 13.6431 71.0139 13.8303 72.0139 13.6897C73.0146 13.5499 73.9436 13.0898 74.6617 12.3792L74.8367 12.2042V12.2035C75.8023 11.2414 77.3647 11.2414 78.3302 12.2035L85.8216 19.6966C86.2915 20.1635 86.555 20.7984 86.555 21.4602C86.555 22.1227 86.2915 22.7577 85.8216 23.2238C85.102 23.9489 84.6398 24.8903 84.5053 25.9028C84.3709 26.916 84.5718 27.9446 85.0768 28.8325C86.7002 31.6811 87.9722 34.7155 88.866 37.8706C89.1433 38.8464 89.73 39.7068 90.5383 40.3211C91.3458 40.9355 92.3313 41.2709 93.3458 41.277C94.7087 41.277 95.8149 42.3789 95.8209 43.7422L95.7878 54.3021Z" fill="#4A4A4A" fill-opacity="0.75"/>
<path d="M63.5032 15.4083H63.393C59.1345 13.8154 54.604 12.9985 50.0335 13H49.4485C45.0797 13.0592 40.7574 13.8671 36.6862 15.3869H36.5752C28.3504 18.4581 21.5409 24.2513 17.3764 31.7201C13.2121 39.1891 11.9673 47.8417 13.8672 56.1136C15.7671 64.3868 20.6862 71.7352 27.7354 76.8308L27.8456 76.9159H27.8464C34.2413 81.5141 42.0159 84 50.0067 84C57.9963 84 65.7716 81.5141 72.165 76.9159L72.2752 76.8308H72.276C79.3214 71.7324 84.2365 64.3848 86.1341 56.1136C88.0317 47.8427 86.7877 39.1921 82.6257 31.7239C78.4636 24.2556 71.6578 18.4617 63.4361 15.3869L63.5032 15.4083ZM63.0284 31.3183C63.9764 31.3139 64.8343 31.8592 65.2004 32.6989C65.5666 33.5387 65.3685 34.5079 64.6994 35.1531C64.0304 35.7982 63.0223 35.9928 62.1452 35.6451C61.2689 35.2981 60.697 34.4768 60.697 33.5667C60.6908 32.9682 60.9336 32.3926 61.3714 31.9664C61.8084 31.541 62.405 31.2998 63.0285 31.2968L63.0284 31.3183ZM49.5255 67.9323C50.4681 67.9323 51.3182 68.4776 51.6797 69.3136C52.0404 70.1497 51.8408 71.1123 51.1741 71.7522C50.5074 72.3922 49.5047 72.5839 48.6329 72.2376C47.7619 71.8913 47.1939 71.0753 47.1939 70.1697C47.2001 68.9363 48.2406 67.9375 49.5254 67.9324L49.5255 67.9323ZM37.0507 31.2956C37.9987 31.2912 38.8566 31.8365 39.2227 32.6762C39.5888 33.516 39.3908 34.4852 38.7217 35.1303C38.0527 35.7755 37.0446 35.9701 36.1675 35.6224C35.2912 35.2754 34.7193 34.4548 34.7193 33.544C34.7193 32.3062 35.7613 31.3015 37.0507 31.2956L37.0507 31.2956ZM72.6184 73.891V64.9497C72.6184 63.7512 72.1229 62.6021 71.2403 61.7551C70.357 60.9072 69.16 60.4314 67.9114 60.4314H66.6297C65.2546 60.4314 64.1386 59.3645 64.1325 58.0445V52.7412C65.5784 52.3935 66.7538 51.3865 67.2786 50.048C67.8027 48.7089 67.6101 47.2077 66.7615 46.0321C65.9136 44.8557 64.5178 44.1535 63.0279 44.1535C61.5373 44.1535 60.1422 44.8557 59.2935 46.0321C58.4457 47.2077 58.2523 48.7089 58.7771 50.048C59.3012 51.3864 60.4774 52.3934 61.9225 52.7412V58.0445C61.9256 59.2416 62.4227 60.3877 63.3052 61.2334C64.1878 62.0783 65.3832 62.5525 66.6296 62.5525H67.9114C69.2902 62.5525 70.4086 63.6261 70.4086 64.9497V75.5564C64.4846 79.679 57.3551 81.8984 50.0399 81.8984C42.7231 81.8984 35.5936 79.6788 29.6692 75.5564V64.9497C29.6692 63.6297 30.7806 62.5584 32.1558 62.5525H33.4483C34.6946 62.5525 35.8909 62.0783 36.7727 61.2334C37.6552 60.3877 38.1523 59.2416 38.1554 58.0445V52.7412C39.6013 52.3935 40.7767 51.3865 41.3016 50.048C41.8257 48.7089 41.633 47.2077 40.7844 46.0321C39.9365 44.8557 38.5407 44.1535 37.0508 44.1535C35.5602 44.1535 34.1651 44.8557 33.3165 46.0321C32.4686 47.2077 32.2752 48.7089 32.8001 50.048C33.3242 51.3864 34.5003 52.3934 35.9454 52.7412V58.0445C35.9393 59.3645 34.8232 60.4314 33.4482 60.4314H32.1557C30.9032 60.4255 29.7001 60.899 28.813 61.7476C27.9251 62.5955 27.4264 63.7476 27.4264 64.9497V73.891C21.4261 68.9863 17.3403 62.27 15.8388 54.8444C14.3373 47.4176 15.5096 39.7215 19.1631 33.0192C22.8166 26.3169 28.7336 21.0037 35.9456 17.9526V29.3235C34.5004 29.6712 33.3243 30.6782 32.8002 32.0167C32.2753 33.3558 32.4688 34.857 33.3166 36.0326C34.1652 37.209 35.5603 37.9112 37.051 37.9112C38.5409 37.9112 39.9367 37.209 40.7846 36.0326C41.6332 34.857 41.8258 33.3558 41.3017 32.0167C40.7768 30.6783 39.6015 29.6713 38.1556 29.3235V17.0936C41.4529 15.9372 44.9144 15.2713 48.4204 15.1211V65.9594C46.9753 66.3072 45.7999 67.3141 45.275 68.6534C44.7502 69.9925 44.9436 71.4929 45.7915 72.6693C46.6401 73.8457 48.0351 74.5471 49.5258 74.5471C51.0165 74.5471 52.4115 73.8457 53.2602 72.6693C54.108 71.493 54.3015 69.9925 53.7766 68.6534C53.2517 67.3142 52.0763 66.3072 50.6312 65.9594V15.1003C54.4849 15.155 58.3018 15.8291 61.9235 17.0942V29.3241C60.4783 29.6718 59.3021 30.6788 58.7781 32.0172C58.2532 33.3564 58.4467 34.8576 59.2945 36.0332C60.1431 37.2096 61.5381 37.9117 63.0289 37.9117C64.5187 37.9117 65.9146 37.2096 66.7624 36.0332C67.611 34.8576 67.8037 33.3563 67.2796 32.0172C66.7547 30.6788 65.5793 29.6718 64.1334 29.3241V17.9531C71.3362 21.0147 77.2431 26.3313 80.8881 33.0345C84.5331 39.737 85.6992 47.4294 84.1977 54.8522C82.6954 62.2746 78.6135 68.988 72.6193 73.8931L72.6184 73.891ZM63.028 50.7362C62.0846 50.7362 61.2345 50.1909 60.8737 49.3549C60.513 48.5181 60.7127 47.5555 61.3794 46.9155C62.0461 46.2755 63.0488 46.0839 63.9198 46.4302C64.7907 46.7771 65.3588 47.5932 65.3588 48.4981C65.3534 49.7314 64.3129 50.7302 63.0281 50.7361L63.028 50.7362ZM37.0497 50.7362C36.1063 50.7362 35.2562 50.1909 34.8954 49.3549C34.5347 48.5181 34.7344 47.5555 35.4011 46.9155C36.0678 46.2755 37.0705 46.0839 37.9415 46.4302C38.8132 46.7771 39.3812 47.5932 39.3812 48.4981C39.3812 49.7344 38.3369 50.7361 37.0498 50.7361L37.0497 50.7362Z" fill="#4A4A4A" fill-opacity="0.75"/>
</svg>
