<svg width="67" height="68" viewBox="0 0 67 68" fill="none" xmlns="http://www.w3.org/2000/svg">
<mask id="path-1-outside-1_252_484" maskUnits="userSpaceOnUse" x="-0.5" y="0" width="68" height="68" fill="black">
<rect fill="white" x="-0.5" width="68" height="68"/>
<path d="M63.3432 27.2939C62.6002 27.2882 61.9504 26.7921 61.7497 26.0763C61.1133 23.8367 60.2093 21.6815 59.0578 19.658C58.6832 18.9946 58.801 18.162 59.3454 17.6289C59.9288 17.0407 60.2566 16.2451 60.2566 15.416C60.2566 14.5869 59.9288 13.7914 59.3454 13.2026L54.3001 8.17835C53.7115 7.59426 52.9161 7.26696 52.0872 7.26696C51.2584 7.26696 50.4629 7.59426 49.8743 8.17835L49.7488 8.30392H49.7493C49.2255 8.82729 48.4178 8.93895 47.772 8.57666C45.7721 7.45685 43.6447 6.57998 41.4364 5.965C40.7084 5.76893 40.2011 5.11074 40.1969 4.35683V4.14275C40.1969 3.30907 39.8661 2.5098 39.277 1.92065C38.6874 1.33141 37.8884 1 37.0549 1H29.9224C29.0904 1.00206 28.293 1.33399 27.7054 1.92322C27.1178 2.51247 26.788 3.3106 26.788 4.14281V4.58539C26.7844 5.32438 26.2951 5.97329 25.5856 6.1792C23.4572 6.80549 21.4079 7.67422 19.4785 8.76873C18.8267 9.13925 18.0086 9.03427 17.472 8.51039L17.1031 8.14141C16.514 7.55937 15.7191 7.23312 14.8907 7.23312C14.0624 7.23312 13.267 7.55939 12.6778 8.14141L7.67684 13.1878C7.09288 13.7765 6.76565 14.5721 6.76565 15.4012C6.76565 16.2302 7.09288 17.0258 7.67684 17.6146L8.14143 18.0793C8.67343 18.6073 8.78558 19.427 8.41463 20.0786C7.37585 21.9781 6.55208 23.9871 5.95845 26.0693C5.76293 26.7893 5.11106 27.29 4.36499 27.2941H3.64211C2.81016 27.2941 2.01217 27.624 1.42302 28.2117C0.833905 28.7994 0.502055 29.5971 0.5 30.4292V37.571C0.502058 38.4032 0.833919 39.2008 1.42302 39.7885C2.01213 40.3762 2.81008 40.7061 3.64211 40.7061H4.32794C5.075 40.7117 5.72791 41.2114 5.92851 41.9309C6.53048 44.0125 7.36444 46.0195 8.41459 47.9143C8.78503 48.5597 8.67596 49.3732 8.14911 49.8986L7.6768 50.371C7.09284 50.9592 6.76561 51.7549 6.76561 52.5839C6.76561 53.413 7.09284 54.2086 7.6768 54.7973L12.7221 59.8437C13.3112 60.4257 14.1066 60.752 14.935 60.752C15.7633 60.752 16.5582 60.4257 17.1473 59.8437L17.5162 59.4675C18.0508 58.974 18.8395 58.8762 19.4785 59.2241C21.3986 60.3171 23.4376 61.1859 25.5558 61.8136C26.2659 62.0195 26.7551 62.6679 26.7582 63.4069V63.8572C26.7582 64.6893 27.0885 65.4875 27.6761 66.0768C28.2637 66.666 29.0612 66.9979 29.8931 67H37.0256C37.8591 67 38.6582 66.6686 39.2472 66.0794C39.8368 65.4901 40.1676 64.6909 40.1676 63.8573V63.6061C40.1893 62.8568 40.7084 62.2136 41.4364 62.035C43.6344 61.436 45.7535 60.5791 47.7499 59.4825C48.3992 59.1181 49.2117 59.2329 49.7343 59.7624L49.8598 59.888C50.4479 60.4721 51.2433 60.7994 52.0722 60.7994C52.9011 60.7994 53.6965 60.4721 54.2851 59.888L59.3304 54.8416C59.9256 54.2503 60.2606 53.4454 60.2606 52.6061C60.2606 51.7667 59.9256 50.9623 59.3304 50.3711C58.802 49.8364 58.6965 49.015 59.0721 48.3641C60.2215 46.3427 61.1229 44.1905 61.7573 41.953C61.9626 41.2377 62.6135 40.7426 63.3574 40.7359C64.1898 40.7359 64.9878 40.4056 65.577 39.8179C66.1661 39.2302 66.4979 38.4324 66.5 37.6004V30.4291C66.4979 29.5944 66.164 28.7947 65.5718 28.2065C64.9796 27.6183 64.1775 27.29 63.343 27.2941L63.3432 27.2939ZM65.0101 37.5708C65.006 38.4884 64.261 39.2305 63.3432 39.2305C62.6599 39.2352 61.9961 39.4611 61.4524 39.8748C60.9081 40.2886 60.513 40.8675 60.3262 41.5252C59.7211 43.6459 58.8644 45.6869 57.7743 47.6044C57.4321 48.2086 57.2978 48.9084 57.3925 49.5959C57.4872 50.284 57.8051 50.9215 58.298 51.411C58.9458 52.0614 58.9458 53.1139 58.298 53.7643L53.2528 58.8106C52.6024 59.4586 51.5503 59.4586 50.9 58.8106L50.7744 58.6851C50.2954 58.2019 49.6708 57.889 48.9969 57.7943C48.3229 57.6996 47.636 57.8288 47.0422 58.1612C45.1458 59.1899 43.1356 59.9948 41.0529 60.5593C40.3866 60.7374 39.797 61.13 39.3756 61.6765C38.9543 62.2236 38.7248 62.8936 38.7222 63.5838V63.8349C38.7222 64.7556 37.9762 65.5022 37.0553 65.5022H29.9228C29.0054 65.4981 28.2635 64.753 28.2635 63.8349V63.3846C28.264 62.7053 28.0432 62.0435 27.6347 61.5006C27.2262 60.9576 26.652 60.5624 25.9991 60.3746C23.9854 59.7889 22.0451 58.9743 20.2162 57.9476C19.7377 57.6733 19.1964 57.5287 18.6453 57.5272C17.8155 57.5272 17.02 57.856 16.4324 58.4417L16.0635 58.8106C15.4081 59.4467 14.3662 59.4467 13.7108 58.8106L8.66551 53.7643C8.01775 53.1138 8.01775 52.0614 8.66551 51.4109L9.15223 50.9684C9.63535 50.4872 9.94765 49.8614 10.0423 49.1863C10.137 48.5112 10.0084 47.823 9.676 47.2277C8.69021 45.4297 7.90815 43.5265 7.34534 41.5546C7.1596 40.8959 6.7655 40.3149 6.22115 39.8997C5.67732 39.4849 5.01309 39.2579 4.32831 39.2528H3.64248C2.7246 39.2528 1.97961 38.5107 1.97552 37.5931V30.4291C1.97964 29.5115 2.72464 28.7694 3.64248 28.7694H4.32831C5.01311 28.7648 5.67731 28.5373 6.22115 28.1225C6.76549 27.7072 7.1596 27.1262 7.34534 26.4676C7.90718 24.4936 8.68618 22.5884 9.66888 20.7867C10.0079 20.1913 10.1412 19.5007 10.0476 18.8214C9.95443 18.1426 9.63955 17.5132 9.15232 17.0315L8.68773 16.5669C8.03997 15.9164 8.03997 14.864 8.68773 14.2135L13.733 9.16716C14.3885 8.5311 15.4304 8.5311 16.0858 9.16716L16.4469 9.52843H16.4475C16.9367 10.0137 17.5717 10.3256 18.255 10.4161C18.9383 10.5067 19.6323 10.3714 20.2312 10.0302C22.0551 8.98963 23.9931 8.16313 26.0065 7.56621C26.6579 7.37888 27.23 6.98417 27.6375 6.4428C28.0445 5.90091 28.2642 5.24117 28.2637 4.56337V4.12079C28.2637 3.20271 29.0056 2.45755 29.923 2.45347H37.0555C37.9764 2.45347 38.7224 3.20018 38.7224 4.12079V4.35701C38.7147 5.05689 38.939 5.73925 39.3609 6.29717C39.7828 6.85554 40.3781 7.25797 41.0532 7.44066C43.1384 8.00725 45.1492 8.81986 47.0425 9.86089C47.6394 10.1882 48.3257 10.3143 48.9991 10.2196C49.6731 10.1254 50.2988 9.81561 50.7824 9.33702L50.9002 9.21917V9.21866C51.5505 8.57075 52.6027 8.57075 53.253 9.21866L58.2982 14.265C58.6147 14.5795 58.7922 15.0071 58.7922 15.4528C58.7922 15.8989 58.6147 16.3266 58.2982 16.6405C57.8136 17.1289 57.5023 17.7629 57.4118 18.4447C57.3212 19.1271 57.4565 19.8198 57.7966 20.4178C58.8899 22.3362 59.7466 24.3798 60.3485 26.5047C60.5353 27.1619 60.9304 27.7413 61.4748 28.155C62.0186 28.5688 62.6823 28.7947 63.3655 28.7988C64.2834 28.7988 65.0284 29.5409 65.0325 30.459L65.0101 37.5708Z"/>
</mask>
<path d="M63.3432 27.2939C62.6002 27.2882 61.9504 26.7921 61.7497 26.0763C61.1133 23.8367 60.2093 21.6815 59.0578 19.658C58.6832 18.9946 58.801 18.162 59.3454 17.6289C59.9288 17.0407 60.2566 16.2451 60.2566 15.416C60.2566 14.5869 59.9288 13.7914 59.3454 13.2026L54.3001 8.17835C53.7115 7.59426 52.9161 7.26696 52.0872 7.26696C51.2584 7.26696 50.4629 7.59426 49.8743 8.17835L49.7488 8.30392H49.7493C49.2255 8.82729 48.4178 8.93895 47.772 8.57666C45.7721 7.45685 43.6447 6.57998 41.4364 5.965C40.7084 5.76893 40.2011 5.11074 40.1969 4.35683V4.14275C40.1969 3.30907 39.8661 2.5098 39.277 1.92065C38.6874 1.33141 37.8884 1 37.0549 1H29.9224C29.0904 1.00206 28.293 1.33399 27.7054 1.92322C27.1178 2.51247 26.788 3.3106 26.788 4.14281V4.58539C26.7844 5.32438 26.2951 5.97329 25.5856 6.1792C23.4572 6.80549 21.4079 7.67422 19.4785 8.76873C18.8267 9.13925 18.0086 9.03427 17.472 8.51039L17.1031 8.14141C16.514 7.55937 15.7191 7.23312 14.8907 7.23312C14.0624 7.23312 13.267 7.55939 12.6778 8.14141L7.67684 13.1878C7.09288 13.7765 6.76565 14.5721 6.76565 15.4012C6.76565 16.2302 7.09288 17.0258 7.67684 17.6146L8.14143 18.0793C8.67343 18.6073 8.78558 19.427 8.41463 20.0786C7.37585 21.9781 6.55208 23.9871 5.95845 26.0693C5.76293 26.7893 5.11106 27.29 4.36499 27.2941H3.64211C2.81016 27.2941 2.01217 27.624 1.42302 28.2117C0.833905 28.7994 0.502055 29.5971 0.5 30.4292V37.571C0.502058 38.4032 0.833919 39.2008 1.42302 39.7885C2.01213 40.3762 2.81008 40.7061 3.64211 40.7061H4.32794C5.075 40.7117 5.72791 41.2114 5.92851 41.9309C6.53048 44.0125 7.36444 46.0195 8.41459 47.9143C8.78503 48.5597 8.67596 49.3732 8.14911 49.8986L7.6768 50.371C7.09284 50.9592 6.76561 51.7549 6.76561 52.5839C6.76561 53.413 7.09284 54.2086 7.6768 54.7973L12.7221 59.8437C13.3112 60.4257 14.1066 60.752 14.935 60.752C15.7633 60.752 16.5582 60.4257 17.1473 59.8437L17.5162 59.4675C18.0508 58.974 18.8395 58.8762 19.4785 59.2241C21.3986 60.3171 23.4376 61.1859 25.5558 61.8136C26.2659 62.0195 26.7551 62.6679 26.7582 63.4069V63.8572C26.7582 64.6893 27.0885 65.4875 27.6761 66.0768C28.2637 66.666 29.0612 66.9979 29.8931 67H37.0256C37.8591 67 38.6582 66.6686 39.2472 66.0794C39.8368 65.4901 40.1676 64.6909 40.1676 63.8573V63.6061C40.1893 62.8568 40.7084 62.2136 41.4364 62.035C43.6344 61.436 45.7535 60.5791 47.7499 59.4825C48.3992 59.1181 49.2117 59.2329 49.7343 59.7624L49.8598 59.888C50.4479 60.4721 51.2433 60.7994 52.0722 60.7994C52.9011 60.7994 53.6965 60.4721 54.2851 59.888L59.3304 54.8416C59.9256 54.2503 60.2606 53.4454 60.2606 52.6061C60.2606 51.7667 59.9256 50.9623 59.3304 50.3711C58.802 49.8364 58.6965 49.015 59.0721 48.3641C60.2215 46.3427 61.1229 44.1905 61.7573 41.953C61.9626 41.2377 62.6135 40.7426 63.3574 40.7359C64.1898 40.7359 64.9878 40.4056 65.577 39.8179C66.1661 39.2302 66.4979 38.4324 66.5 37.6004V30.4291C66.4979 29.5944 66.164 28.7947 65.5718 28.2065C64.9796 27.6183 64.1775 27.29 63.343 27.2941L63.3432 27.2939ZM65.0101 37.5708C65.006 38.4884 64.261 39.2305 63.3432 39.2305C62.6599 39.2352 61.9961 39.4611 61.4524 39.8748C60.9081 40.2886 60.513 40.8675 60.3262 41.5252C59.7211 43.6459 58.8644 45.6869 57.7743 47.6044C57.4321 48.2086 57.2978 48.9084 57.3925 49.5959C57.4872 50.284 57.8051 50.9215 58.298 51.411C58.9458 52.0614 58.9458 53.1139 58.298 53.7643L53.2528 58.8106C52.6024 59.4586 51.5503 59.4586 50.9 58.8106L50.7744 58.6851C50.2954 58.2019 49.6708 57.889 48.9969 57.7943C48.3229 57.6996 47.636 57.8288 47.0422 58.1612C45.1458 59.1899 43.1356 59.9948 41.0529 60.5593C40.3866 60.7374 39.797 61.13 39.3756 61.6765C38.9543 62.2236 38.7248 62.8936 38.7222 63.5838V63.8349C38.7222 64.7556 37.9762 65.5022 37.0553 65.5022H29.9228C29.0054 65.4981 28.2635 64.753 28.2635 63.8349V63.3846C28.264 62.7053 28.0432 62.0435 27.6347 61.5006C27.2262 60.9576 26.652 60.5624 25.9991 60.3746C23.9854 59.7889 22.0451 58.9743 20.2162 57.9476C19.7377 57.6733 19.1964 57.5287 18.6453 57.5272C17.8155 57.5272 17.02 57.856 16.4324 58.4417L16.0635 58.8106C15.4081 59.4467 14.3662 59.4467 13.7108 58.8106L8.66551 53.7643C8.01775 53.1138 8.01775 52.0614 8.66551 51.4109L9.15223 50.9684C9.63535 50.4872 9.94765 49.8614 10.0423 49.1863C10.137 48.5112 10.0084 47.823 9.676 47.2277C8.69021 45.4297 7.90815 43.5265 7.34534 41.5546C7.1596 40.8959 6.7655 40.3149 6.22115 39.8997C5.67732 39.4849 5.01309 39.2579 4.32831 39.2528H3.64248C2.7246 39.2528 1.97961 38.5107 1.97552 37.5931V30.4291C1.97964 29.5115 2.72464 28.7694 3.64248 28.7694H4.32831C5.01311 28.7648 5.67731 28.5373 6.22115 28.1225C6.76549 27.7072 7.1596 27.1262 7.34534 26.4676C7.90718 24.4936 8.68618 22.5884 9.66888 20.7867C10.0079 20.1913 10.1412 19.5007 10.0476 18.8214C9.95443 18.1426 9.63955 17.5132 9.15232 17.0315L8.68773 16.5669C8.03997 15.9164 8.03997 14.864 8.68773 14.2135L13.733 9.16716C14.3885 8.5311 15.4304 8.5311 16.0858 9.16716L16.4469 9.52843H16.4475C16.9367 10.0137 17.5717 10.3256 18.255 10.4161C18.9383 10.5067 19.6323 10.3714 20.2312 10.0302C22.0551 8.98963 23.9931 8.16313 26.0065 7.56621C26.6579 7.37888 27.23 6.98417 27.6375 6.4428C28.0445 5.90091 28.2642 5.24117 28.2637 4.56337V4.12079C28.2637 3.20271 29.0056 2.45755 29.923 2.45347H37.0555C37.9764 2.45347 38.7224 3.20018 38.7224 4.12079V4.35701C38.7147 5.05689 38.939 5.73925 39.3609 6.29717C39.7828 6.85554 40.3781 7.25797 41.0532 7.44066C43.1384 8.00725 45.1492 8.81986 47.0425 9.86089C47.6394 10.1882 48.3257 10.3143 48.9991 10.2196C49.6731 10.1254 50.2988 9.81561 50.7824 9.33702L50.9002 9.21917V9.21866C51.5505 8.57075 52.6027 8.57075 53.253 9.21866L58.2982 14.265C58.6147 14.5795 58.7922 15.0071 58.7922 15.4528C58.7922 15.8989 58.6147 16.3266 58.2982 16.6405C57.8136 17.1289 57.5023 17.7629 57.4118 18.4447C57.3212 19.1271 57.4565 19.8198 57.7966 20.4178C58.8899 22.3362 59.7466 24.3798 60.3485 26.5047C60.5353 27.1619 60.9304 27.7413 61.4748 28.155C62.0186 28.5688 62.6823 28.7947 63.3655 28.7988C64.2834 28.7988 65.0284 29.5409 65.0325 30.459L65.0101 37.5708Z" fill="white"/>
<path d="M63.3432 27.2939C62.6002 27.2882 61.9504 26.7921 61.7497 26.0763C61.1133 23.8367 60.2093 21.6815 59.0578 19.658C58.6832 18.9946 58.801 18.162 59.3454 17.6289C59.9288 17.0407 60.2566 16.2451 60.2566 15.416C60.2566 14.5869 59.9288 13.7914 59.3454 13.2026L54.3001 8.17835C53.7115 7.59426 52.9161 7.26696 52.0872 7.26696C51.2584 7.26696 50.4629 7.59426 49.8743 8.17835L49.7488 8.30392H49.7493C49.2255 8.82729 48.4178 8.93895 47.772 8.57666C45.7721 7.45685 43.6447 6.57998 41.4364 5.965C40.7084 5.76893 40.2011 5.11074 40.1969 4.35683V4.14275C40.1969 3.30907 39.8661 2.5098 39.277 1.92065C38.6874 1.33141 37.8884 1 37.0549 1H29.9224C29.0904 1.00206 28.293 1.33399 27.7054 1.92322C27.1178 2.51247 26.788 3.3106 26.788 4.14281V4.58539C26.7844 5.32438 26.2951 5.97329 25.5856 6.1792C23.4572 6.80549 21.4079 7.67422 19.4785 8.76873C18.8267 9.13925 18.0086 9.03427 17.472 8.51039L17.1031 8.14141C16.514 7.55937 15.7191 7.23312 14.8907 7.23312C14.0624 7.23312 13.267 7.55939 12.6778 8.14141L7.67684 13.1878C7.09288 13.7765 6.76565 14.5721 6.76565 15.4012C6.76565 16.2302 7.09288 17.0258 7.67684 17.6146L8.14143 18.0793C8.67343 18.6073 8.78558 19.427 8.41463 20.0786C7.37585 21.9781 6.55208 23.9871 5.95845 26.0693C5.76293 26.7893 5.11106 27.29 4.36499 27.2941H3.64211C2.81016 27.2941 2.01217 27.624 1.42302 28.2117C0.833905 28.7994 0.502055 29.5971 0.5 30.4292V37.571C0.502058 38.4032 0.833919 39.2008 1.42302 39.7885C2.01213 40.3762 2.81008 40.7061 3.64211 40.7061H4.32794C5.075 40.7117 5.72791 41.2114 5.92851 41.9309C6.53048 44.0125 7.36444 46.0195 8.41459 47.9143C8.78503 48.5597 8.67596 49.3732 8.14911 49.8986L7.6768 50.371C7.09284 50.9592 6.76561 51.7549 6.76561 52.5839C6.76561 53.413 7.09284 54.2086 7.6768 54.7973L12.7221 59.8437C13.3112 60.4257 14.1066 60.752 14.935 60.752C15.7633 60.752 16.5582 60.4257 17.1473 59.8437L17.5162 59.4675C18.0508 58.974 18.8395 58.8762 19.4785 59.2241C21.3986 60.3171 23.4376 61.1859 25.5558 61.8136C26.2659 62.0195 26.7551 62.6679 26.7582 63.4069V63.8572C26.7582 64.6893 27.0885 65.4875 27.6761 66.0768C28.2637 66.666 29.0612 66.9979 29.8931 67H37.0256C37.8591 67 38.6582 66.6686 39.2472 66.0794C39.8368 65.4901 40.1676 64.6909 40.1676 63.8573V63.6061C40.1893 62.8568 40.7084 62.2136 41.4364 62.035C43.6344 61.436 45.7535 60.5791 47.7499 59.4825C48.3992 59.1181 49.2117 59.2329 49.7343 59.7624L49.8598 59.888C50.4479 60.4721 51.2433 60.7994 52.0722 60.7994C52.9011 60.7994 53.6965 60.4721 54.2851 59.888L59.3304 54.8416C59.9256 54.2503 60.2606 53.4454 60.2606 52.6061C60.2606 51.7667 59.9256 50.9623 59.3304 50.3711C58.802 49.8364 58.6965 49.015 59.0721 48.3641C60.2215 46.3427 61.1229 44.1905 61.7573 41.953C61.9626 41.2377 62.6135 40.7426 63.3574 40.7359C64.1898 40.7359 64.9878 40.4056 65.577 39.8179C66.1661 39.2302 66.4979 38.4324 66.5 37.6004V30.4291C66.4979 29.5944 66.164 28.7947 65.5718 28.2065C64.9796 27.6183 64.1775 27.29 63.343 27.2941L63.3432 27.2939ZM65.0101 37.5708C65.006 38.4884 64.261 39.2305 63.3432 39.2305C62.6599 39.2352 61.9961 39.4611 61.4524 39.8748C60.9081 40.2886 60.513 40.8675 60.3262 41.5252C59.7211 43.6459 58.8644 45.6869 57.7743 47.6044C57.4321 48.2086 57.2978 48.9084 57.3925 49.5959C57.4872 50.284 57.8051 50.9215 58.298 51.411C58.9458 52.0614 58.9458 53.1139 58.298 53.7643L53.2528 58.8106C52.6024 59.4586 51.5503 59.4586 50.9 58.8106L50.7744 58.6851C50.2954 58.2019 49.6708 57.889 48.9969 57.7943C48.3229 57.6996 47.636 57.8288 47.0422 58.1612C45.1458 59.1899 43.1356 59.9948 41.0529 60.5593C40.3866 60.7374 39.797 61.13 39.3756 61.6765C38.9543 62.2236 38.7248 62.8936 38.7222 63.5838V63.8349C38.7222 64.7556 37.9762 65.5022 37.0553 65.5022H29.9228C29.0054 65.4981 28.2635 64.753 28.2635 63.8349V63.3846C28.264 62.7053 28.0432 62.0435 27.6347 61.5006C27.2262 60.9576 26.652 60.5624 25.9991 60.3746C23.9854 59.7889 22.0451 58.9743 20.2162 57.9476C19.7377 57.6733 19.1964 57.5287 18.6453 57.5272C17.8155 57.5272 17.02 57.856 16.4324 58.4417L16.0635 58.8106C15.4081 59.4467 14.3662 59.4467 13.7108 58.8106L8.66551 53.7643C8.01775 53.1138 8.01775 52.0614 8.66551 51.4109L9.15223 50.9684C9.63535 50.4872 9.94765 49.8614 10.0423 49.1863C10.137 48.5112 10.0084 47.823 9.676 47.2277C8.69021 45.4297 7.90815 43.5265 7.34534 41.5546C7.1596 40.8959 6.7655 40.3149 6.22115 39.8997C5.67732 39.4849 5.01309 39.2579 4.32831 39.2528H3.64248C2.7246 39.2528 1.97961 38.5107 1.97552 37.5931V30.4291C1.97964 29.5115 2.72464 28.7694 3.64248 28.7694H4.32831C5.01311 28.7648 5.67731 28.5373 6.22115 28.1225C6.76549 27.7072 7.1596 27.1262 7.34534 26.4676C7.90718 24.4936 8.68618 22.5884 9.66888 20.7867C10.0079 20.1913 10.1412 19.5007 10.0476 18.8214C9.95443 18.1426 9.63955 17.5132 9.15232 17.0315L8.68773 16.5669C8.03997 15.9164 8.03997 14.864 8.68773 14.2135L13.733 9.16716C14.3885 8.5311 15.4304 8.5311 16.0858 9.16716L16.4469 9.52843H16.4475C16.9367 10.0137 17.5717 10.3256 18.255 10.4161C18.9383 10.5067 19.6323 10.3714 20.2312 10.0302C22.0551 8.98963 23.9931 8.16313 26.0065 7.56621C26.6579 7.37888 27.23 6.98417 27.6375 6.4428C28.0445 5.90091 28.2642 5.24117 28.2637 4.56337V4.12079C28.2637 3.20271 29.0056 2.45755 29.923 2.45347H37.0555C37.9764 2.45347 38.7224 3.20018 38.7224 4.12079V4.35701C38.7147 5.05689 38.939 5.73925 39.3609 6.29717C39.7828 6.85554 40.3781 7.25797 41.0532 7.44066C43.1384 8.00725 45.1492 8.81986 47.0425 9.86089C47.6394 10.1882 48.3257 10.3143 48.9991 10.2196C49.6731 10.1254 50.2988 9.81561 50.7824 9.33702L50.9002 9.21917V9.21866C51.5505 8.57075 52.6027 8.57075 53.253 9.21866L58.2982 14.265C58.6147 14.5795 58.7922 15.0071 58.7922 15.4528C58.7922 15.8989 58.6147 16.3266 58.2982 16.6405C57.8136 17.1289 57.5023 17.7629 57.4118 18.4447C57.3212 19.1271 57.4565 19.8198 57.7966 20.4178C58.8899 22.3362 59.7466 24.3798 60.3485 26.5047C60.5353 27.1619 60.9304 27.7413 61.4748 28.155C62.0186 28.5688 62.6823 28.7947 63.3655 28.7988C64.2834 28.7988 65.0284 29.5409 65.0325 30.459L65.0101 37.5708Z" stroke="white" mask="url(#path-1-outside-1_252_484)"/>
<mask id="path-2-outside-2_252_484" maskUnits="userSpaceOnUse" x="8.2551" y="8.7551" width="52" height="50" fill="black">
<rect fill="white" x="8.2551" y="8.7551" width="52" height="50"/>
<path d="M43.2674 11.377H43.1932C40.3253 10.3042 37.2741 9.75408 34.196 9.7551H33.802C30.8598 9.79496 27.9489 10.3391 25.207 11.3626H25.1323C19.5931 13.431 15.0071 17.3325 12.2025 22.3625C9.39795 27.3927 8.55958 33.2199 9.83913 38.7908C11.1187 44.3626 14.4315 49.3115 19.1789 52.7432L19.2532 52.8005H19.2537C23.5605 55.8972 28.7964 57.5714 34.178 57.5714C39.5587 57.5714 44.7952 55.8972 49.1009 52.8005L49.1751 52.7432H49.1756C53.9206 49.3095 57.2307 44.3612 58.5087 38.7908C59.7866 33.2206 58.9488 27.3947 56.1458 22.365C53.3428 17.3354 48.7593 13.4334 43.2223 11.3626L43.2674 11.377ZM42.9477 22.0919C43.5862 22.089 44.1639 22.4562 44.4105 23.0217C44.6571 23.5873 44.5237 24.24 44.0731 24.6745C43.6225 25.109 42.9436 25.2401 42.3529 25.0059C41.7627 24.7722 41.3775 24.2191 41.3775 23.6062C41.3734 23.2031 41.5369 22.8154 41.8317 22.5284C42.1261 22.2419 42.5278 22.0795 42.9478 22.0775L42.9477 22.0919ZM33.8539 46.7503C34.4887 46.7503 35.0612 47.1176 35.3047 47.6806C35.5476 48.2437 35.4132 48.8919 34.9642 49.3229C34.5152 49.7539 33.8399 49.883 33.2528 49.6498C32.6662 49.4166 32.2836 48.867 32.2836 48.2571C32.2878 47.4265 32.9886 46.7538 33.8538 46.7504L33.8539 46.7503ZM25.4525 22.0766C26.091 22.0736 26.6687 22.4409 26.9153 23.0064C27.1619 23.572 27.0285 24.2247 26.5779 24.6592C26.1273 25.0937 25.4484 25.2248 24.8577 24.9906C24.2675 24.7569 23.8824 24.2043 23.8824 23.5909C23.8824 22.7572 24.5841 22.0806 25.4525 22.0766L25.4525 22.0766ZM49.4063 50.7633V44.7417C49.4063 43.9345 49.0725 43.1606 48.4782 42.5901C47.8833 42.0191 47.0772 41.6987 46.2363 41.6987H45.373C44.447 41.6987 43.6954 40.9802 43.6913 40.0912V36.5196C44.6651 36.2854 45.4566 35.6072 45.8101 34.7058C46.1631 33.8039 46.0333 32.7929 45.4618 32.0012C44.8908 31.2089 43.9508 30.7361 42.9474 30.7361C41.9435 30.7361 41.0039 31.2089 40.4324 32.0012C39.8614 32.7929 39.7311 33.804 40.0846 34.7058C40.4376 35.6072 41.2297 36.2854 42.2029 36.5196V40.0912C42.205 40.8974 42.5398 41.6692 43.1341 42.2388C43.7285 42.8078 44.5336 43.1272 45.373 43.1272H46.2362C47.1648 43.1272 47.918 43.8502 47.918 44.7416V51.8849C43.9284 54.6613 39.1269 56.1561 34.2003 56.1561C29.2727 56.1561 24.4712 54.6612 20.4813 51.8849V44.7416C20.4813 43.8527 21.2298 43.1312 22.1559 43.1272H23.0264C23.8658 43.1272 24.6714 42.8078 25.2653 42.2388C25.8596 41.6693 26.1944 40.8974 26.1965 40.0912V36.5196C27.1703 36.2854 27.9619 35.6072 28.3153 34.7058C28.6683 33.8039 28.5385 32.7929 27.967 32.0012C27.396 31.2089 26.456 30.7361 25.4526 30.7361C24.4487 30.7361 23.5091 31.2089 22.9376 32.0012C22.3666 32.7929 22.2363 33.804 22.5898 34.7058C22.9428 35.6072 23.7349 36.2854 24.7081 36.5196V40.0912C24.704 40.9802 23.9524 41.6987 23.0264 41.6987H22.1559C21.3123 41.6947 20.5021 42.0136 19.9047 42.5851C19.3067 43.1562 18.9708 43.932 18.9708 44.7416V50.7633C14.9298 47.4602 12.1782 42.937 11.1669 37.936C10.1557 32.9343 10.9453 27.7512 13.4058 23.2374C15.8662 18.7236 19.8512 15.1453 24.7083 13.0905V20.7485C23.735 20.9827 22.9429 21.6608 22.5899 22.5622C22.2364 23.4641 22.3667 24.4751 22.9377 25.2669C23.5092 26.0591 24.4488 26.532 25.4527 26.532C26.4561 26.532 27.3961 26.0591 27.9671 25.2669C28.5387 24.4751 28.6684 23.4641 28.3155 22.5622C27.962 21.6609 27.1704 20.9827 26.1966 20.7485V12.512C28.4172 11.7332 30.7484 11.2848 33.1097 11.1836V45.4217C32.1364 45.6558 31.3448 46.334 30.9914 47.2359C30.6379 48.1378 30.7681 49.1483 31.3391 49.9406C31.9106 50.7328 32.8502 51.2052 33.8541 51.2052C34.8581 51.2052 35.7976 50.7328 36.3691 49.9406C36.9401 49.1483 37.0704 48.1378 36.7169 47.2359C36.3634 46.3341 35.5718 45.6559 34.5986 45.4217V11.1696C37.1939 11.2065 39.7645 11.6604 42.2035 12.5124V20.7489C41.2303 20.9831 40.4382 21.6612 40.0852 22.5626C39.7317 23.4645 39.862 24.4755 40.433 25.2673C41.0045 26.0595 41.9441 26.5324 42.948 26.5324C43.9514 26.5324 44.8914 26.0595 45.4624 25.2673C46.0339 24.4755 46.1637 23.4645 45.8107 22.5626C45.4572 21.6612 44.6656 20.9831 43.6919 20.7489V13.0909C48.5427 15.1527 52.5209 18.7333 54.9757 23.2477C57.4304 27.7617 58.2158 32.9422 57.2045 37.9412C56.1929 42.94 53.4438 47.4613 49.4069 50.7647L49.4063 50.7633ZM42.9474 35.1693C42.3121 35.1693 41.7395 34.802 41.4966 34.239C41.2537 33.6754 41.3881 33.0272 41.8371 32.5962C42.2861 32.1651 42.9614 32.0361 43.548 32.2693C44.1346 32.503 44.5171 33.0526 44.5171 33.662C44.5135 34.4926 43.8127 35.1653 42.9475 35.1692L42.9474 35.1693ZM25.4518 35.1693C24.8165 35.1693 24.2439 34.802 24.001 34.239C23.7581 33.6754 23.8925 33.0272 24.3415 32.5962C24.7905 32.1651 25.4658 32.0361 26.0524 32.2693C26.6395 32.503 27.0221 33.0526 27.0221 33.662C27.0221 34.4946 26.3187 35.1692 25.4519 35.1692L25.4518 35.1693Z"/>
</mask>
<path d="M43.2674 11.377H43.1932C40.3253 10.3042 37.2741 9.75408 34.196 9.7551H33.802C30.8598 9.79496 27.9489 10.3391 25.207 11.3626H25.1323C19.5931 13.431 15.0071 17.3325 12.2025 22.3625C9.39795 27.3927 8.55958 33.2199 9.83913 38.7908C11.1187 44.3626 14.4315 49.3115 19.1789 52.7432L19.2532 52.8005H19.2537C23.5605 55.8972 28.7964 57.5714 34.178 57.5714C39.5587 57.5714 44.7952 55.8972 49.1009 52.8005L49.1751 52.7432H49.1756C53.9206 49.3095 57.2307 44.3612 58.5087 38.7908C59.7866 33.2206 58.9488 27.3947 56.1458 22.365C53.3428 17.3354 48.7593 13.4334 43.2223 11.3626L43.2674 11.377ZM42.9477 22.0919C43.5862 22.089 44.1639 22.4562 44.4105 23.0217C44.6571 23.5873 44.5237 24.24 44.0731 24.6745C43.6225 25.109 42.9436 25.2401 42.3529 25.0059C41.7627 24.7722 41.3775 24.2191 41.3775 23.6062C41.3734 23.2031 41.5369 22.8154 41.8317 22.5284C42.1261 22.2419 42.5278 22.0795 42.9478 22.0775L42.9477 22.0919ZM33.8539 46.7503C34.4887 46.7503 35.0612 47.1176 35.3047 47.6806C35.5476 48.2437 35.4132 48.8919 34.9642 49.3229C34.5152 49.7539 33.8399 49.883 33.2528 49.6498C32.6662 49.4166 32.2836 48.867 32.2836 48.2571C32.2878 47.4265 32.9886 46.7538 33.8538 46.7504L33.8539 46.7503ZM25.4525 22.0766C26.091 22.0736 26.6687 22.4409 26.9153 23.0064C27.1619 23.572 27.0285 24.2247 26.5779 24.6592C26.1273 25.0937 25.4484 25.2248 24.8577 24.9906C24.2675 24.7569 23.8824 24.2043 23.8824 23.5909C23.8824 22.7572 24.5841 22.0806 25.4525 22.0766L25.4525 22.0766ZM49.4063 50.7633V44.7417C49.4063 43.9345 49.0725 43.1606 48.4782 42.5901C47.8833 42.0191 47.0772 41.6987 46.2363 41.6987H45.373C44.447 41.6987 43.6954 40.9802 43.6913 40.0912V36.5196C44.6651 36.2854 45.4566 35.6072 45.8101 34.7058C46.1631 33.8039 46.0333 32.7929 45.4618 32.0012C44.8908 31.2089 43.9508 30.7361 42.9474 30.7361C41.9435 30.7361 41.0039 31.2089 40.4324 32.0012C39.8614 32.7929 39.7311 33.804 40.0846 34.7058C40.4376 35.6072 41.2297 36.2854 42.2029 36.5196V40.0912C42.205 40.8974 42.5398 41.6692 43.1341 42.2388C43.7285 42.8078 44.5336 43.1272 45.373 43.1272H46.2362C47.1648 43.1272 47.918 43.8502 47.918 44.7416V51.8849C43.9284 54.6613 39.1269 56.1561 34.2003 56.1561C29.2727 56.1561 24.4712 54.6612 20.4813 51.8849V44.7416C20.4813 43.8527 21.2298 43.1312 22.1559 43.1272H23.0264C23.8658 43.1272 24.6714 42.8078 25.2653 42.2388C25.8596 41.6693 26.1944 40.8974 26.1965 40.0912V36.5196C27.1703 36.2854 27.9619 35.6072 28.3153 34.7058C28.6683 33.8039 28.5385 32.7929 27.967 32.0012C27.396 31.2089 26.456 30.7361 25.4526 30.7361C24.4487 30.7361 23.5091 31.2089 22.9376 32.0012C22.3666 32.7929 22.2363 33.804 22.5898 34.7058C22.9428 35.6072 23.7349 36.2854 24.7081 36.5196V40.0912C24.704 40.9802 23.9524 41.6987 23.0264 41.6987H22.1559C21.3123 41.6947 20.5021 42.0136 19.9047 42.5851C19.3067 43.1562 18.9708 43.932 18.9708 44.7416V50.7633C14.9298 47.4602 12.1782 42.937 11.1669 37.936C10.1557 32.9343 10.9453 27.7512 13.4058 23.2374C15.8662 18.7236 19.8512 15.1453 24.7083 13.0905V20.7485C23.735 20.9827 22.9429 21.6608 22.5899 22.5622C22.2364 23.4641 22.3667 24.4751 22.9377 25.2669C23.5092 26.0591 24.4488 26.532 25.4527 26.532C26.4561 26.532 27.3961 26.0591 27.9671 25.2669C28.5387 24.4751 28.6684 23.4641 28.3155 22.5622C27.962 21.6609 27.1704 20.9827 26.1966 20.7485V12.512C28.4172 11.7332 30.7484 11.2848 33.1097 11.1836V45.4217C32.1364 45.6558 31.3448 46.334 30.9914 47.2359C30.6379 48.1378 30.7681 49.1483 31.3391 49.9406C31.9106 50.7328 32.8502 51.2052 33.8541 51.2052C34.8581 51.2052 35.7976 50.7328 36.3691 49.9406C36.9401 49.1483 37.0704 48.1378 36.7169 47.2359C36.3634 46.3341 35.5718 45.6559 34.5986 45.4217V11.1696C37.1939 11.2065 39.7645 11.6604 42.2035 12.5124V20.7489C41.2303 20.9831 40.4382 21.6612 40.0852 22.5626C39.7317 23.4645 39.862 24.4755 40.433 25.2673C41.0045 26.0595 41.9441 26.5324 42.948 26.5324C43.9514 26.5324 44.8914 26.0595 45.4624 25.2673C46.0339 24.4755 46.1637 23.4645 45.8107 22.5626C45.4572 21.6612 44.6656 20.9831 43.6919 20.7489V13.0909C48.5427 15.1527 52.5209 18.7333 54.9757 23.2477C57.4304 27.7617 58.2158 32.9422 57.2045 37.9412C56.1929 42.94 53.4438 47.4613 49.4069 50.7647L49.4063 50.7633ZM42.9474 35.1693C42.3121 35.1693 41.7395 34.802 41.4966 34.239C41.2537 33.6754 41.3881 33.0272 41.8371 32.5962C42.2861 32.1651 42.9614 32.0361 43.548 32.2693C44.1346 32.503 44.5171 33.0526 44.5171 33.662C44.5135 34.4926 43.8127 35.1653 42.9475 35.1692L42.9474 35.1693ZM25.4518 35.1693C24.8165 35.1693 24.2439 34.802 24.001 34.239C23.7581 33.6754 23.8925 33.0272 24.3415 32.5962C24.7905 32.1651 25.4658 32.0361 26.0524 32.2693C26.6395 32.503 27.0221 33.0526 27.0221 33.662C27.0221 34.4946 26.3187 35.1692 25.4519 35.1692L25.4518 35.1693Z" fill="white"/>
<path d="M43.2674 11.377H43.1932C40.3253 10.3042 37.2741 9.75408 34.196 9.7551H33.802C30.8598 9.79496 27.9489 10.3391 25.207 11.3626H25.1323C19.5931 13.431 15.0071 17.3325 12.2025 22.3625C9.39795 27.3927 8.55958 33.2199 9.83913 38.7908C11.1187 44.3626 14.4315 49.3115 19.1789 52.7432L19.2532 52.8005H19.2537C23.5605 55.8972 28.7964 57.5714 34.178 57.5714C39.5587 57.5714 44.7952 55.8972 49.1009 52.8005L49.1751 52.7432H49.1756C53.9206 49.3095 57.2307 44.3612 58.5087 38.7908C59.7866 33.2206 58.9488 27.3947 56.1458 22.365C53.3428 17.3354 48.7593 13.4334 43.2223 11.3626L43.2674 11.377ZM42.9477 22.0919C43.5862 22.089 44.1639 22.4562 44.4105 23.0217C44.6571 23.5873 44.5237 24.24 44.0731 24.6745C43.6225 25.109 42.9436 25.2401 42.3529 25.0059C41.7627 24.7722 41.3775 24.2191 41.3775 23.6062C41.3734 23.2031 41.5369 22.8154 41.8317 22.5284C42.1261 22.2419 42.5278 22.0795 42.9478 22.0775L42.9477 22.0919ZM33.8539 46.7503C34.4887 46.7503 35.0612 47.1176 35.3047 47.6806C35.5476 48.2437 35.4132 48.8919 34.9642 49.3229C34.5152 49.7539 33.8399 49.883 33.2528 49.6498C32.6662 49.4166 32.2836 48.867 32.2836 48.2571C32.2878 47.4265 32.9886 46.7538 33.8538 46.7504L33.8539 46.7503ZM25.4525 22.0766C26.091 22.0736 26.6687 22.4409 26.9153 23.0064C27.1619 23.572 27.0285 24.2247 26.5779 24.6592C26.1273 25.0937 25.4484 25.2248 24.8577 24.9906C24.2675 24.7569 23.8824 24.2043 23.8824 23.5909C23.8824 22.7572 24.5841 22.0806 25.4525 22.0766L25.4525 22.0766ZM49.4063 50.7633V44.7417C49.4063 43.9345 49.0725 43.1606 48.4782 42.5901C47.8833 42.0191 47.0772 41.6987 46.2363 41.6987H45.373C44.447 41.6987 43.6954 40.9802 43.6913 40.0912V36.5196C44.6651 36.2854 45.4566 35.6072 45.8101 34.7058C46.1631 33.8039 46.0333 32.7929 45.4618 32.0012C44.8908 31.2089 43.9508 30.7361 42.9474 30.7361C41.9435 30.7361 41.0039 31.2089 40.4324 32.0012C39.8614 32.7929 39.7311 33.804 40.0846 34.7058C40.4376 35.6072 41.2297 36.2854 42.2029 36.5196V40.0912C42.205 40.8974 42.5398 41.6692 43.1341 42.2388C43.7285 42.8078 44.5336 43.1272 45.373 43.1272H46.2362C47.1648 43.1272 47.918 43.8502 47.918 44.7416V51.8849C43.9284 54.6613 39.1269 56.1561 34.2003 56.1561C29.2727 56.1561 24.4712 54.6612 20.4813 51.8849V44.7416C20.4813 43.8527 21.2298 43.1312 22.1559 43.1272H23.0264C23.8658 43.1272 24.6714 42.8078 25.2653 42.2388C25.8596 41.6693 26.1944 40.8974 26.1965 40.0912V36.5196C27.1703 36.2854 27.9619 35.6072 28.3153 34.7058C28.6683 33.8039 28.5385 32.7929 27.967 32.0012C27.396 31.2089 26.456 30.7361 25.4526 30.7361C24.4487 30.7361 23.5091 31.2089 22.9376 32.0012C22.3666 32.7929 22.2363 33.804 22.5898 34.7058C22.9428 35.6072 23.7349 36.2854 24.7081 36.5196V40.0912C24.704 40.9802 23.9524 41.6987 23.0264 41.6987H22.1559C21.3123 41.6947 20.5021 42.0136 19.9047 42.5851C19.3067 43.1562 18.9708 43.932 18.9708 44.7416V50.7633C14.9298 47.4602 12.1782 42.937 11.1669 37.936C10.1557 32.9343 10.9453 27.7512 13.4058 23.2374C15.8662 18.7236 19.8512 15.1453 24.7083 13.0905V20.7485C23.735 20.9827 22.9429 21.6608 22.5899 22.5622C22.2364 23.4641 22.3667 24.4751 22.9377 25.2669C23.5092 26.0591 24.4488 26.532 25.4527 26.532C26.4561 26.532 27.3961 26.0591 27.9671 25.2669C28.5387 24.4751 28.6684 23.4641 28.3155 22.5622C27.962 21.6609 27.1704 20.9827 26.1966 20.7485V12.512C28.4172 11.7332 30.7484 11.2848 33.1097 11.1836V45.4217C32.1364 45.6558 31.3448 46.334 30.9914 47.2359C30.6379 48.1378 30.7681 49.1483 31.3391 49.9406C31.9106 50.7328 32.8502 51.2052 33.8541 51.2052C34.8581 51.2052 35.7976 50.7328 36.3691 49.9406C36.9401 49.1483 37.0704 48.1378 36.7169 47.2359C36.3634 46.3341 35.5718 45.6559 34.5986 45.4217V11.1696C37.1939 11.2065 39.7645 11.6604 42.2035 12.5124V20.7489C41.2303 20.9831 40.4382 21.6612 40.0852 22.5626C39.7317 23.4645 39.862 24.4755 40.433 25.2673C41.0045 26.0595 41.9441 26.5324 42.948 26.5324C43.9514 26.5324 44.8914 26.0595 45.4624 25.2673C46.0339 24.4755 46.1637 23.4645 45.8107 22.5626C45.4572 21.6612 44.6656 20.9831 43.6919 20.7489V13.0909C48.5427 15.1527 52.5209 18.7333 54.9757 23.2477C57.4304 27.7617 58.2158 32.9422 57.2045 37.9412C56.1929 42.94 53.4438 47.4613 49.4069 50.7647L49.4063 50.7633ZM42.9474 35.1693C42.3121 35.1693 41.7395 34.802 41.4966 34.239C41.2537 33.6754 41.3881 33.0272 41.8371 32.5962C42.2861 32.1651 42.9614 32.0361 43.548 32.2693C44.1346 32.503 44.5171 33.0526 44.5171 33.662C44.5135 34.4926 43.8127 35.1653 42.9475 35.1692L42.9474 35.1693ZM25.4518 35.1693C24.8165 35.1693 24.2439 34.802 24.001 34.239C23.7581 33.6754 23.8925 33.0272 24.3415 32.5962C24.7905 32.1651 25.4658 32.0361 26.0524 32.2693C26.6395 32.503 27.0221 33.0526 27.0221 33.662C27.0221 34.4946 26.3187 35.1692 25.4519 35.1692L25.4518 35.1693Z" stroke="white" mask="url(#path-2-outside-2_252_484)"/>
</svg>
